<?xml version="1.0" encoding="utf-8" standalone="no"?>
<!DOCTYPE svg PUBLIC "-//W3C//DTD SVG 1.1//EN"
  "http://www.w3.org/Graphics/SVG/1.1/DTD/svg11.dtd">
<!-- Created with matplotlib (https://matplotlib.org/) -->
<svg height="345.6pt" version="1.1" viewBox="0 0 460.8 345.6" width="460.8pt" xmlns="http://www.w3.org/2000/svg" xmlns:xlink="http://www.w3.org/1999/xlink">
 <defs>
  <style type="text/css">
*{stroke-linecap:butt;stroke-linejoin:round;}
  </style>
 </defs>
 <g id="figure_1">
  <g id="patch_1">
   <path d="M 0 345.6 
L 460.8 345.6 
L 460.8 0 
L 0 0 
z
" style="fill:#ffffff;"/>
  </g>
  <g id="axes_1">
   <g id="patch_2">
    <path d="M 54.11 238.385464 
L 450 238.385464 
L 450 25.44 
L 54.11 25.44 
z
" style="fill:#ffffff;"/>
   </g>
   <g id="matplotlib.axis_1">
    <g id="xtick_1">
     <g id="line2d_1">
      <defs>
       <path d="M 0 0 
L 0 3.5 
" id="m9b956617ab" style="stroke:#000000;stroke-width:0.8;"/>
      </defs>
      <g>
       <use style="stroke:#000000;stroke-width:0.8;" x="93.275588" xlink:href="#m9b956617ab" y="238.385464"/>
      </g>
     </g>
     <g id="text_1">
      <!-- Full plugin v0 -->
      <defs>
       <path d="M 9.8125 72.90625 
L 51.703125 72.90625 
L 51.703125 64.59375 
L 19.671875 64.59375 
L 19.671875 43.109375 
L 48.578125 43.109375 
L 48.578125 34.8125 
L 19.671875 34.8125 
L 19.671875 0 
L 9.8125 0 
z
" id="DejaVuSans-70"/>
       <path d="M 8.5 21.578125 
L 8.5 54.6875 
L 17.484375 54.6875 
L 17.484375 21.921875 
Q 17.484375 14.15625 20.5 10.265625 
Q 23.53125 6.390625 29.59375 6.390625 
Q 36.859375 6.390625 41.078125 11.03125 
Q 45.3125 15.671875 45.3125 23.6875 
L 45.3125 54.6875 
L 54.296875 54.6875 
L 54.296875 0 
L 45.3125 0 
L 45.3125 8.40625 
Q 42.046875 3.421875 37.71875 1 
Q 33.40625 -1.421875 27.6875 -1.421875 
Q 18.265625 -1.421875 13.375 4.4375 
Q 8.5 10.296875 8.5 21.578125 
z
M 31.109375 56 
z
" id="DejaVuSans-117"/>
       <path d="M 9.421875 75.984375 
L 18.40625 75.984375 
L 18.40625 0 
L 9.421875 0 
z
" id="DejaVuSans-108"/>
       <path id="DejaVuSans-32"/>
       <path d="M 18.109375 8.203125 
L 18.109375 -20.796875 
L 9.078125 -20.796875 
L 9.078125 54.6875 
L 18.109375 54.6875 
L 18.109375 46.390625 
Q 20.953125 51.265625 25.265625 53.625 
Q 29.59375 56 35.59375 56 
Q 45.5625 56 51.78125 48.09375 
Q 58.015625 40.1875 58.015625 27.296875 
Q 58.015625 14.40625 51.78125 6.484375 
Q 45.5625 -1.421875 35.59375 -1.421875 
Q 29.59375 -1.421875 25.265625 0.953125 
Q 20.953125 3.328125 18.109375 8.203125 
z
M 48.6875 27.296875 
Q 48.6875 37.203125 44.609375 42.84375 
Q 40.53125 48.484375 33.40625 48.484375 
Q 26.265625 48.484375 22.1875 42.84375 
Q 18.109375 37.203125 18.109375 27.296875 
Q 18.109375 17.390625 22.1875 11.75 
Q 26.265625 6.109375 33.40625 6.109375 
Q 40.53125 6.109375 44.609375 11.75 
Q 48.6875 17.390625 48.6875 27.296875 
z
" id="DejaVuSans-112"/>
       <path d="M 45.40625 27.984375 
Q 45.40625 37.75 41.375 43.109375 
Q 37.359375 48.484375 30.078125 48.484375 
Q 22.859375 48.484375 18.828125 43.109375 
Q 14.796875 37.75 14.796875 27.984375 
Q 14.796875 18.265625 18.828125 12.890625 
Q 22.859375 7.515625 30.078125 7.515625 
Q 37.359375 7.515625 41.375 12.890625 
Q 45.40625 18.265625 45.40625 27.984375 
z
M 54.390625 6.78125 
Q 54.390625 -7.171875 48.1875 -13.984375 
Q 42 -20.796875 29.203125 -20.796875 
Q 24.46875 -20.796875 20.265625 -20.09375 
Q 16.0625 -19.390625 12.109375 -17.921875 
L 12.109375 -9.1875 
Q 16.0625 -11.328125 19.921875 -12.34375 
Q 23.78125 -13.375 27.78125 -13.375 
Q 36.625 -13.375 41.015625 -8.765625 
Q 45.40625 -4.15625 45.40625 5.171875 
L 45.40625 9.625 
Q 42.625 4.78125 38.28125 2.390625 
Q 33.9375 0 27.875 0 
Q 17.828125 0 11.671875 7.65625 
Q 5.515625 15.328125 5.515625 27.984375 
Q 5.515625 40.671875 11.671875 48.328125 
Q 17.828125 56 27.875 56 
Q 33.9375 56 38.28125 53.609375 
Q 42.625 51.21875 45.40625 46.390625 
L 45.40625 54.6875 
L 54.390625 54.6875 
z
" id="DejaVuSans-103"/>
       <path d="M 9.421875 54.6875 
L 18.40625 54.6875 
L 18.40625 0 
L 9.421875 0 
z
M 9.421875 75.984375 
L 18.40625 75.984375 
L 18.40625 64.59375 
L 9.421875 64.59375 
z
" id="DejaVuSans-105"/>
       <path d="M 54.890625 33.015625 
L 54.890625 0 
L 45.90625 0 
L 45.90625 32.71875 
Q 45.90625 40.484375 42.875 44.328125 
Q 39.84375 48.1875 33.796875 48.1875 
Q 26.515625 48.1875 22.3125 43.546875 
Q 18.109375 38.921875 18.109375 30.90625 
L 18.109375 0 
L 9.078125 0 
L 9.078125 54.6875 
L 18.109375 54.6875 
L 18.109375 46.1875 
Q 21.34375 51.125 25.703125 53.5625 
Q 30.078125 56 35.796875 56 
Q 45.21875 56 50.046875 50.171875 
Q 54.890625 44.34375 54.890625 33.015625 
z
" id="DejaVuSans-110"/>
       <path d="M 2.984375 54.6875 
L 12.5 54.6875 
L 29.59375 8.796875 
L 46.6875 54.6875 
L 56.203125 54.6875 
L 35.6875 0 
L 23.484375 0 
z
" id="DejaVuSans-118"/>
       <path d="M 31.78125 66.40625 
Q 24.171875 66.40625 20.328125 58.90625 
Q 16.5 51.421875 16.5 36.375 
Q 16.5 21.390625 20.328125 13.890625 
Q 24.171875 6.390625 31.78125 6.390625 
Q 39.453125 6.390625 43.28125 13.890625 
Q 47.125 21.390625 47.125 36.375 
Q 47.125 51.421875 43.28125 58.90625 
Q 39.453125 66.40625 31.78125 66.40625 
z
M 31.78125 74.21875 
Q 44.046875 74.21875 50.515625 64.515625 
Q 56.984375 54.828125 56.984375 36.375 
Q 56.984375 17.96875 50.515625 8.265625 
Q 44.046875 -1.421875 31.78125 -1.421875 
Q 19.53125 -1.421875 13.0625 8.265625 
Q 6.59375 17.96875 6.59375 36.375 
Q 6.59375 54.828125 13.0625 64.515625 
Q 19.53125 74.21875 31.78125 74.21875 
z
" id="DejaVuSans-48"/>
      </defs>
      <g transform="translate(34.505679 285.296373)rotate(-30)scale(0.1 -0.1)">
       <use xlink:href="#DejaVuSans-70"/>
       <use x="52.019531" xlink:href="#DejaVuSans-117"/>
       <use x="115.398438" xlink:href="#DejaVuSans-108"/>
       <use x="143.181641" xlink:href="#DejaVuSans-108"/>
       <use x="170.964844" xlink:href="#DejaVuSans-32"/>
       <use x="202.751953" xlink:href="#DejaVuSans-112"/>
       <use x="266.228516" xlink:href="#DejaVuSans-108"/>
       <use x="294.011719" xlink:href="#DejaVuSans-117"/>
       <use x="357.390625" xlink:href="#DejaVuSans-103"/>
       <use x="420.867188" xlink:href="#DejaVuSans-105"/>
       <use x="448.650391" xlink:href="#DejaVuSans-110"/>
       <use x="512.029297" xlink:href="#DejaVuSans-32"/>
       <use x="543.816406" xlink:href="#DejaVuSans-118"/>
       <use x="602.996094" xlink:href="#DejaVuSans-48"/>
      </g>
     </g>
    </g>
    <g id="xtick_2">
     <g id="line2d_2">
      <g>
       <use style="stroke:#000000;stroke-width:0.8;" x="146.202059" xlink:href="#m9b956617ab" y="238.385464"/>
      </g>
     </g>
     <g id="text_2">
      <!-- Full plugin -->
      <g transform="translate(100.820361 277.566685)rotate(-30)scale(0.1 -0.1)">
       <use xlink:href="#DejaVuSans-70"/>
       <use x="52.019531" xlink:href="#DejaVuSans-117"/>
       <use x="115.398438" xlink:href="#DejaVuSans-108"/>
       <use x="143.181641" xlink:href="#DejaVuSans-108"/>
       <use x="170.964844" xlink:href="#DejaVuSans-32"/>
       <use x="202.751953" xlink:href="#DejaVuSans-112"/>
       <use x="266.228516" xlink:href="#DejaVuSans-108"/>
       <use x="294.011719" xlink:href="#DejaVuSans-117"/>
       <use x="357.390625" xlink:href="#DejaVuSans-103"/>
       <use x="420.867188" xlink:href="#DejaVuSans-105"/>
       <use x="448.650391" xlink:href="#DejaVuSans-110"/>
      </g>
     </g>
    </g>
    <g id="xtick_3">
     <g id="line2d_3">
      <g>
       <use style="stroke:#000000;stroke-width:0.8;" x="199.128529" xlink:href="#m9b956617ab" y="238.385464"/>
      </g>
     </g>
     <g id="text_3">
      <!-- Without user space packet -->
      <defs>
       <path d="M 3.328125 72.90625 
L 13.28125 72.90625 
L 28.609375 11.28125 
L 43.890625 72.90625 
L 54.984375 72.90625 
L 70.3125 11.28125 
L 85.59375 72.90625 
L 95.609375 72.90625 
L 77.296875 0 
L 64.890625 0 
L 49.515625 63.28125 
L 33.984375 0 
L 21.578125 0 
z
" id="DejaVuSans-87"/>
       <path d="M 18.3125 70.21875 
L 18.3125 54.6875 
L 36.8125 54.6875 
L 36.8125 47.703125 
L 18.3125 47.703125 
L 18.3125 18.015625 
Q 18.3125 11.328125 20.140625 9.421875 
Q 21.96875 7.515625 27.59375 7.515625 
L 36.8125 7.515625 
L 36.8125 0 
L 27.59375 0 
Q 17.1875 0 13.234375 3.875 
Q 9.28125 7.765625 9.28125 18.015625 
L 9.28125 47.703125 
L 2.6875 47.703125 
L 2.6875 54.6875 
L 9.28125 54.6875 
L 9.28125 70.21875 
z
" id="DejaVuSans-116"/>
       <path d="M 54.890625 33.015625 
L 54.890625 0 
L 45.90625 0 
L 45.90625 32.71875 
Q 45.90625 40.484375 42.875 44.328125 
Q 39.84375 48.1875 33.796875 48.1875 
Q 26.515625 48.1875 22.3125 43.546875 
Q 18.109375 38.921875 18.109375 30.90625 
L 18.109375 0 
L 9.078125 0 
L 9.078125 75.984375 
L 18.109375 75.984375 
L 18.109375 46.1875 
Q 21.34375 51.125 25.703125 53.5625 
Q 30.078125 56 35.796875 56 
Q 45.21875 56 50.046875 50.171875 
Q 54.890625 44.34375 54.890625 33.015625 
z
" id="DejaVuSans-104"/>
       <path d="M 30.609375 48.390625 
Q 23.390625 48.390625 19.1875 42.75 
Q 14.984375 37.109375 14.984375 27.296875 
Q 14.984375 17.484375 19.15625 11.84375 
Q 23.34375 6.203125 30.609375 6.203125 
Q 37.796875 6.203125 41.984375 11.859375 
Q 46.1875 17.53125 46.1875 27.296875 
Q 46.1875 37.015625 41.984375 42.703125 
Q 37.796875 48.390625 30.609375 48.390625 
z
M 30.609375 56 
Q 42.328125 56 49.015625 48.375 
Q 55.71875 40.765625 55.71875 27.296875 
Q 55.71875 13.875 49.015625 6.21875 
Q 42.328125 -1.421875 30.609375 -1.421875 
Q 18.84375 -1.421875 12.171875 6.21875 
Q 5.515625 13.875 5.515625 27.296875 
Q 5.515625 40.765625 12.171875 48.375 
Q 18.84375 56 30.609375 56 
z
" id="DejaVuSans-111"/>
       <path d="M 44.28125 53.078125 
L 44.28125 44.578125 
Q 40.484375 46.53125 36.375 47.5 
Q 32.28125 48.484375 27.875 48.484375 
Q 21.1875 48.484375 17.84375 46.4375 
Q 14.5 44.390625 14.5 40.28125 
Q 14.5 37.15625 16.890625 35.375 
Q 19.28125 33.59375 26.515625 31.984375 
L 29.59375 31.296875 
Q 39.15625 29.25 43.1875 25.515625 
Q 47.21875 21.78125 47.21875 15.09375 
Q 47.21875 7.46875 41.1875 3.015625 
Q 35.15625 -1.421875 24.609375 -1.421875 
Q 20.21875 -1.421875 15.453125 -0.5625 
Q 10.6875 0.296875 5.421875 2 
L 5.421875 11.28125 
Q 10.40625 8.6875 15.234375 7.390625 
Q 20.0625 6.109375 24.8125 6.109375 
Q 31.15625 6.109375 34.5625 8.28125 
Q 37.984375 10.453125 37.984375 14.40625 
Q 37.984375 18.0625 35.515625 20.015625 
Q 33.0625 21.96875 24.703125 23.78125 
L 21.578125 24.515625 
Q 13.234375 26.265625 9.515625 29.90625 
Q 5.8125 33.546875 5.8125 39.890625 
Q 5.8125 47.609375 11.28125 51.796875 
Q 16.75 56 26.8125 56 
Q 31.78125 56 36.171875 55.265625 
Q 40.578125 54.546875 44.28125 53.078125 
z
" id="DejaVuSans-115"/>
       <path d="M 56.203125 29.59375 
L 56.203125 25.203125 
L 14.890625 25.203125 
Q 15.484375 15.921875 20.484375 11.0625 
Q 25.484375 6.203125 34.421875 6.203125 
Q 39.59375 6.203125 44.453125 7.46875 
Q 49.3125 8.734375 54.109375 11.28125 
L 54.109375 2.78125 
Q 49.265625 0.734375 44.1875 -0.34375 
Q 39.109375 -1.421875 33.890625 -1.421875 
Q 20.796875 -1.421875 13.15625 6.1875 
Q 5.515625 13.8125 5.515625 26.8125 
Q 5.515625 40.234375 12.765625 48.109375 
Q 20.015625 56 32.328125 56 
Q 43.359375 56 49.78125 48.890625 
Q 56.203125 41.796875 56.203125 29.59375 
z
M 47.21875 32.234375 
Q 47.125 39.59375 43.09375 43.984375 
Q 39.0625 48.390625 32.421875 48.390625 
Q 24.90625 48.390625 20.390625 44.140625 
Q 15.875 39.890625 15.1875 32.171875 
z
" id="DejaVuSans-101"/>
       <path d="M 41.109375 46.296875 
Q 39.59375 47.171875 37.8125 47.578125 
Q 36.03125 48 33.890625 48 
Q 26.265625 48 22.1875 43.046875 
Q 18.109375 38.09375 18.109375 28.8125 
L 18.109375 0 
L 9.078125 0 
L 9.078125 54.6875 
L 18.109375 54.6875 
L 18.109375 46.1875 
Q 20.953125 51.171875 25.484375 53.578125 
Q 30.03125 56 36.53125 56 
Q 37.453125 56 38.578125 55.875 
Q 39.703125 55.765625 41.0625 55.515625 
z
" id="DejaVuSans-114"/>
       <path d="M 34.28125 27.484375 
Q 23.390625 27.484375 19.1875 25 
Q 14.984375 22.515625 14.984375 16.5 
Q 14.984375 11.71875 18.140625 8.90625 
Q 21.296875 6.109375 26.703125 6.109375 
Q 34.1875 6.109375 38.703125 11.40625 
Q 43.21875 16.703125 43.21875 25.484375 
L 43.21875 27.484375 
z
M 52.203125 31.203125 
L 52.203125 0 
L 43.21875 0 
L 43.21875 8.296875 
Q 40.140625 3.328125 35.546875 0.953125 
Q 30.953125 -1.421875 24.3125 -1.421875 
Q 15.921875 -1.421875 10.953125 3.296875 
Q 6 8.015625 6 15.921875 
Q 6 25.140625 12.171875 29.828125 
Q 18.359375 34.515625 30.609375 34.515625 
L 43.21875 34.515625 
L 43.21875 35.40625 
Q 43.21875 41.609375 39.140625 45 
Q 35.0625 48.390625 27.6875 48.390625 
Q 23 48.390625 18.546875 47.265625 
Q 14.109375 46.140625 10.015625 43.890625 
L 10.015625 52.203125 
Q 14.9375 54.109375 19.578125 55.046875 
Q 24.21875 56 28.609375 56 
Q 40.484375 56 46.34375 49.84375 
Q 52.203125 43.703125 52.203125 31.203125 
z
" id="DejaVuSans-97"/>
       <path d="M 48.78125 52.59375 
L 48.78125 44.1875 
Q 44.96875 46.296875 41.140625 47.34375 
Q 37.3125 48.390625 33.40625 48.390625 
Q 24.65625 48.390625 19.8125 42.84375 
Q 14.984375 37.3125 14.984375 27.296875 
Q 14.984375 17.28125 19.8125 11.734375 
Q 24.65625 6.203125 33.40625 6.203125 
Q 37.3125 6.203125 41.140625 7.25 
Q 44.96875 8.296875 48.78125 10.40625 
L 48.78125 2.09375 
Q 45.015625 0.34375 40.984375 -0.53125 
Q 36.96875 -1.421875 32.421875 -1.421875 
Q 20.0625 -1.421875 12.78125 6.34375 
Q 5.515625 14.109375 5.515625 27.296875 
Q 5.515625 40.671875 12.859375 48.328125 
Q 20.21875 56 33.015625 56 
Q 37.15625 56 41.109375 55.140625 
Q 45.0625 54.296875 48.78125 52.59375 
z
" id="DejaVuSans-99"/>
       <path d="M 9.078125 75.984375 
L 18.109375 75.984375 
L 18.109375 31.109375 
L 44.921875 54.6875 
L 56.390625 54.6875 
L 27.390625 29.109375 
L 57.625 0 
L 45.90625 0 
L 18.109375 26.703125 
L 18.109375 0 
L 9.078125 0 
z
" id="DejaVuSans-107"/>
      </defs>
      <g transform="translate(82.704332 318.583091)rotate(-30)scale(0.1 -0.1)">
       <use xlink:href="#DejaVuSans-87"/>
       <use x="96.626953" xlink:href="#DejaVuSans-105"/>
       <use x="124.410156" xlink:href="#DejaVuSans-116"/>
       <use x="163.619141" xlink:href="#DejaVuSans-104"/>
       <use x="226.998047" xlink:href="#DejaVuSans-111"/>
       <use x="288.179688" xlink:href="#DejaVuSans-117"/>
       <use x="351.558594" xlink:href="#DejaVuSans-116"/>
       <use x="390.767578" xlink:href="#DejaVuSans-32"/>
       <use x="422.554688" xlink:href="#DejaVuSans-117"/>
       <use x="485.933594" xlink:href="#DejaVuSans-115"/>
       <use x="538.033203" xlink:href="#DejaVuSans-101"/>
       <use x="599.556641" xlink:href="#DejaVuSans-114"/>
       <use x="640.669922" xlink:href="#DejaVuSans-32"/>
       <use x="672.457031" xlink:href="#DejaVuSans-115"/>
       <use x="724.556641" xlink:href="#DejaVuSans-112"/>
       <use x="788.033203" xlink:href="#DejaVuSans-97"/>
       <use x="849.3125" xlink:href="#DejaVuSans-99"/>
       <use x="904.292969" xlink:href="#DejaVuSans-101"/>
       <use x="965.816406" xlink:href="#DejaVuSans-32"/>
       <use x="997.603516" xlink:href="#DejaVuSans-112"/>
       <use x="1061.080078" xlink:href="#DejaVuSans-97"/>
       <use x="1122.359375" xlink:href="#DejaVuSans-99"/>
       <use x="1177.339844" xlink:href="#DejaVuSans-107"/>
       <use x="1231.625" xlink:href="#DejaVuSans-101"/>
       <use x="1293.148438" xlink:href="#DejaVuSans-116"/>
      </g>
     </g>
    </g>
    <g id="xtick_4">
     <g id="line2d_4">
      <g>
       <use style="stroke:#000000;stroke-width:0.8;" x="252.055" xlink:href="#m9b956617ab" y="238.385464"/>
      </g>
     </g>
     <g id="text_4">
      <!-- Without XOR coding function -->
      <defs>
       <path d="M 6.296875 72.90625 
L 16.890625 72.90625 
L 35.015625 45.796875 
L 53.21875 72.90625 
L 63.8125 72.90625 
L 40.375 37.890625 
L 65.375 0 
L 54.78125 0 
L 34.28125 31 
L 13.625 0 
L 2.984375 0 
L 29 38.921875 
z
" id="DejaVuSans-88"/>
       <path d="M 39.40625 66.21875 
Q 28.65625 66.21875 22.328125 58.203125 
Q 16.015625 50.203125 16.015625 36.375 
Q 16.015625 22.609375 22.328125 14.59375 
Q 28.65625 6.59375 39.40625 6.59375 
Q 50.140625 6.59375 56.421875 14.59375 
Q 62.703125 22.609375 62.703125 36.375 
Q 62.703125 50.203125 56.421875 58.203125 
Q 50.140625 66.21875 39.40625 66.21875 
z
M 39.40625 74.21875 
Q 54.734375 74.21875 63.90625 63.9375 
Q 73.09375 53.65625 73.09375 36.375 
Q 73.09375 19.140625 63.90625 8.859375 
Q 54.734375 -1.421875 39.40625 -1.421875 
Q 24.03125 -1.421875 14.8125 8.828125 
Q 5.609375 19.09375 5.609375 36.375 
Q 5.609375 53.65625 14.8125 63.9375 
Q 24.03125 74.21875 39.40625 74.21875 
z
" id="DejaVuSans-79"/>
       <path d="M 44.390625 34.1875 
Q 47.5625 33.109375 50.5625 29.59375 
Q 53.5625 26.078125 56.59375 19.921875 
L 66.609375 0 
L 56 0 
L 46.6875 18.703125 
Q 43.0625 26.03125 39.671875 28.421875 
Q 36.28125 30.8125 30.421875 30.8125 
L 19.671875 30.8125 
L 19.671875 0 
L 9.8125 0 
L 9.8125 72.90625 
L 32.078125 72.90625 
Q 44.578125 72.90625 50.734375 67.671875 
Q 56.890625 62.453125 56.890625 51.90625 
Q 56.890625 45.015625 53.6875 40.46875 
Q 50.484375 35.9375 44.390625 34.1875 
z
M 19.671875 64.796875 
L 19.671875 38.921875 
L 32.078125 38.921875 
Q 39.203125 38.921875 42.84375 42.21875 
Q 46.484375 45.515625 46.484375 51.90625 
Q 46.484375 58.296875 42.84375 61.546875 
Q 39.203125 64.796875 32.078125 64.796875 
z
" id="DejaVuSans-82"/>
       <path d="M 45.40625 46.390625 
L 45.40625 75.984375 
L 54.390625 75.984375 
L 54.390625 0 
L 45.40625 0 
L 45.40625 8.203125 
Q 42.578125 3.328125 38.25 0.953125 
Q 33.9375 -1.421875 27.875 -1.421875 
Q 17.96875 -1.421875 11.734375 6.484375 
Q 5.515625 14.40625 5.515625 27.296875 
Q 5.515625 40.1875 11.734375 48.09375 
Q 17.96875 56 27.875 56 
Q 33.9375 56 38.25 53.625 
Q 42.578125 51.265625 45.40625 46.390625 
z
M 14.796875 27.296875 
Q 14.796875 17.390625 18.875 11.75 
Q 22.953125 6.109375 30.078125 6.109375 
Q 37.203125 6.109375 41.296875 11.75 
Q 45.40625 17.390625 45.40625 27.296875 
Q 45.40625 37.203125 41.296875 42.84375 
Q 37.203125 48.484375 30.078125 48.484375 
Q 22.953125 48.484375 18.875 42.84375 
Q 14.796875 37.203125 14.796875 27.296875 
z
" id="DejaVuSans-100"/>
       <path d="M 37.109375 75.984375 
L 37.109375 68.5 
L 28.515625 68.5 
Q 23.6875 68.5 21.796875 66.546875 
Q 19.921875 64.59375 19.921875 59.515625 
L 19.921875 54.6875 
L 34.71875 54.6875 
L 34.71875 47.703125 
L 19.921875 47.703125 
L 19.921875 0 
L 10.890625 0 
L 10.890625 47.703125 
L 2.296875 47.703125 
L 2.296875 54.6875 
L 10.890625 54.6875 
L 10.890625 58.5 
Q 10.890625 67.625 15.140625 71.796875 
Q 19.390625 75.984375 28.609375 75.984375 
z
" id="DejaVuSans-102"/>
      </defs>
      <g transform="translate(126.37651 323.92606)rotate(-30)scale(0.1 -0.1)">
       <use xlink:href="#DejaVuSans-87"/>
       <use x="96.626953" xlink:href="#DejaVuSans-105"/>
       <use x="124.410156" xlink:href="#DejaVuSans-116"/>
       <use x="163.619141" xlink:href="#DejaVuSans-104"/>
       <use x="226.998047" xlink:href="#DejaVuSans-111"/>
       <use x="288.179688" xlink:href="#DejaVuSans-117"/>
       <use x="351.558594" xlink:href="#DejaVuSans-116"/>
       <use x="390.767578" xlink:href="#DejaVuSans-32"/>
       <use x="422.554688" xlink:href="#DejaVuSans-88"/>
       <use x="484.685547" xlink:href="#DejaVuSans-79"/>
       <use x="563.396484" xlink:href="#DejaVuSans-82"/>
       <use x="632.878906" xlink:href="#DejaVuSans-32"/>
       <use x="664.666016" xlink:href="#DejaVuSans-99"/>
       <use x="719.646484" xlink:href="#DejaVuSans-111"/>
       <use x="780.828125" xlink:href="#DejaVuSans-100"/>
       <use x="844.304688" xlink:href="#DejaVuSans-105"/>
       <use x="872.087891" xlink:href="#DejaVuSans-110"/>
       <use x="935.466797" xlink:href="#DejaVuSans-103"/>
       <use x="998.943359" xlink:href="#DejaVuSans-32"/>
       <use x="1030.730469" xlink:href="#DejaVuSans-102"/>
       <use x="1065.935547" xlink:href="#DejaVuSans-117"/>
       <use x="1129.314453" xlink:href="#DejaVuSans-110"/>
       <use x="1192.693359" xlink:href="#DejaVuSans-99"/>
       <use x="1247.673828" xlink:href="#DejaVuSans-116"/>
       <use x="1286.882812" xlink:href="#DejaVuSans-105"/>
       <use x="1314.666016" xlink:href="#DejaVuSans-111"/>
       <use x="1375.847656" xlink:href="#DejaVuSans-110"/>
      </g>
     </g>
    </g>
    <g id="xtick_5">
     <g id="line2d_5">
      <g>
       <use style="stroke:#000000;stroke-width:0.8;" x="304.981471" xlink:href="#m9b956617ab" y="238.385464"/>
      </g>
     </g>
     <g id="text_5">
      <!-- Without adding the TLV -->
      <defs>
       <path d="M -0.296875 72.90625 
L 61.375 72.90625 
L 61.375 64.59375 
L 35.5 64.59375 
L 35.5 0 
L 25.59375 0 
L 25.59375 64.59375 
L -0.296875 64.59375 
z
" id="DejaVuSans-84"/>
       <path d="M 9.8125 72.90625 
L 19.671875 72.90625 
L 19.671875 8.296875 
L 55.171875 8.296875 
L 55.171875 0 
L 9.8125 0 
z
" id="DejaVuSans-76"/>
       <path d="M 28.609375 0 
L 0.78125 72.90625 
L 11.078125 72.90625 
L 34.1875 11.53125 
L 57.328125 72.90625 
L 67.578125 72.90625 
L 39.796875 0 
z
" id="DejaVuSans-86"/>
      </defs>
      <g transform="translate(202.850752 310.330748)rotate(-30)scale(0.1 -0.1)">
       <use xlink:href="#DejaVuSans-87"/>
       <use x="96.626953" xlink:href="#DejaVuSans-105"/>
       <use x="124.410156" xlink:href="#DejaVuSans-116"/>
       <use x="163.619141" xlink:href="#DejaVuSans-104"/>
       <use x="226.998047" xlink:href="#DejaVuSans-111"/>
       <use x="288.179688" xlink:href="#DejaVuSans-117"/>
       <use x="351.558594" xlink:href="#DejaVuSans-116"/>
       <use x="390.767578" xlink:href="#DejaVuSans-32"/>
       <use x="422.554688" xlink:href="#DejaVuSans-97"/>
       <use x="483.833984" xlink:href="#DejaVuSans-100"/>
       <use x="547.310547" xlink:href="#DejaVuSans-100"/>
       <use x="610.787109" xlink:href="#DejaVuSans-105"/>
       <use x="638.570312" xlink:href="#DejaVuSans-110"/>
       <use x="701.949219" xlink:href="#DejaVuSans-103"/>
       <use x="765.425781" xlink:href="#DejaVuSans-32"/>
       <use x="797.212891" xlink:href="#DejaVuSans-116"/>
       <use x="836.421875" xlink:href="#DejaVuSans-104"/>
       <use x="899.800781" xlink:href="#DejaVuSans-101"/>
       <use x="961.324219" xlink:href="#DejaVuSans-32"/>
       <use x="993.111328" xlink:href="#DejaVuSans-84"/>
       <use x="1054.195312" xlink:href="#DejaVuSans-76"/>
       <use x="1098.908203" xlink:href="#DejaVuSans-86"/>
      </g>
     </g>
    </g>
    <g id="xtick_6">
     <g id="line2d_6">
      <g>
       <use style="stroke:#000000;stroke-width:0.8;" x="357.907941" xlink:href="#m9b956617ab" y="238.385464"/>
      </g>
     </g>
     <g id="text_6">
      <!-- Without user space -->
      <g transform="translate(273.227635 300.255748)rotate(-30)scale(0.1 -0.1)">
       <use xlink:href="#DejaVuSans-87"/>
       <use x="96.626953" xlink:href="#DejaVuSans-105"/>
       <use x="124.410156" xlink:href="#DejaVuSans-116"/>
       <use x="163.619141" xlink:href="#DejaVuSans-104"/>
       <use x="226.998047" xlink:href="#DejaVuSans-111"/>
       <use x="288.179688" xlink:href="#DejaVuSans-117"/>
       <use x="351.558594" xlink:href="#DejaVuSans-116"/>
       <use x="390.767578" xlink:href="#DejaVuSans-32"/>
       <use x="422.554688" xlink:href="#DejaVuSans-117"/>
       <use x="485.933594" xlink:href="#DejaVuSans-115"/>
       <use x="538.033203" xlink:href="#DejaVuSans-101"/>
       <use x="599.556641" xlink:href="#DejaVuSans-114"/>
       <use x="640.669922" xlink:href="#DejaVuSans-32"/>
       <use x="672.457031" xlink:href="#DejaVuSans-115"/>
       <use x="724.556641" xlink:href="#DejaVuSans-112"/>
       <use x="788.033203" xlink:href="#DejaVuSans-97"/>
       <use x="849.3125" xlink:href="#DejaVuSans-99"/>
       <use x="904.292969" xlink:href="#DejaVuSans-101"/>
      </g>
     </g>
    </g>
    <g id="xtick_7">
     <g id="line2d_7">
      <g>
       <use style="stroke:#000000;stroke-width:0.8;" x="410.834412" xlink:href="#m9b956617ab" y="238.385464"/>
      </g>
     </g>
     <g id="text_7">
      <!-- Without user space and TLV add -->
      <g transform="translate(270.214277 332.552623)rotate(-30)scale(0.1 -0.1)">
       <use xlink:href="#DejaVuSans-87"/>
       <use x="96.626953" xlink:href="#DejaVuSans-105"/>
       <use x="124.410156" xlink:href="#DejaVuSans-116"/>
       <use x="163.619141" xlink:href="#DejaVuSans-104"/>
       <use x="226.998047" xlink:href="#DejaVuSans-111"/>
       <use x="288.179688" xlink:href="#DejaVuSans-117"/>
       <use x="351.558594" xlink:href="#DejaVuSans-116"/>
       <use x="390.767578" xlink:href="#DejaVuSans-32"/>
       <use x="422.554688" xlink:href="#DejaVuSans-117"/>
       <use x="485.933594" xlink:href="#DejaVuSans-115"/>
       <use x="538.033203" xlink:href="#DejaVuSans-101"/>
       <use x="599.556641" xlink:href="#DejaVuSans-114"/>
       <use x="640.669922" xlink:href="#DejaVuSans-32"/>
       <use x="672.457031" xlink:href="#DejaVuSans-115"/>
       <use x="724.556641" xlink:href="#DejaVuSans-112"/>
       <use x="788.033203" xlink:href="#DejaVuSans-97"/>
       <use x="849.3125" xlink:href="#DejaVuSans-99"/>
       <use x="904.292969" xlink:href="#DejaVuSans-101"/>
       <use x="965.816406" xlink:href="#DejaVuSans-32"/>
       <use x="997.603516" xlink:href="#DejaVuSans-97"/>
       <use x="1058.882812" xlink:href="#DejaVuSans-110"/>
       <use x="1122.261719" xlink:href="#DejaVuSans-100"/>
       <use x="1185.738281" xlink:href="#DejaVuSans-32"/>
       <use x="1217.525391" xlink:href="#DejaVuSans-84"/>
       <use x="1278.609375" xlink:href="#DejaVuSans-76"/>
       <use x="1323.322266" xlink:href="#DejaVuSans-86"/>
       <use x="1391.730469" xlink:href="#DejaVuSans-32"/>
       <use x="1423.517578" xlink:href="#DejaVuSans-97"/>
       <use x="1484.796875" xlink:href="#DejaVuSans-100"/>
       <use x="1548.273438" xlink:href="#DejaVuSans-100"/>
      </g>
     </g>
    </g>
   </g>
   <g id="matplotlib.axis_2">
    <g id="ytick_1">
     <g id="line2d_8">
      <path clip-path="url(#pe857d3ee5b)" d="M 54.11 238.385464 
L 450 238.385464 
" style="fill:none;stroke:#b0b0b0;stroke-linecap:square;stroke-width:0.8;"/>
     </g>
     <g id="line2d_9">
      <defs>
       <path d="M 0 0 
L -3.5 0 
" id="m5cfc3f0209" style="stroke:#000000;stroke-width:0.8;"/>
      </defs>
      <g>
       <use style="stroke:#000000;stroke-width:0.8;" x="54.11" xlink:href="#m5cfc3f0209" y="238.385464"/>
      </g>
     </g>
     <g id="text_8">
      <!-- 0% -->
      <defs>
       <path d="M 72.703125 32.078125 
Q 68.453125 32.078125 66.03125 28.46875 
Q 63.625 24.859375 63.625 18.40625 
Q 63.625 12.0625 66.03125 8.421875 
Q 68.453125 4.78125 72.703125 4.78125 
Q 76.859375 4.78125 79.265625 8.421875 
Q 81.6875 12.0625 81.6875 18.40625 
Q 81.6875 24.8125 79.265625 28.4375 
Q 76.859375 32.078125 72.703125 32.078125 
z
M 72.703125 38.28125 
Q 80.421875 38.28125 84.953125 32.90625 
Q 89.5 27.546875 89.5 18.40625 
Q 89.5 9.28125 84.9375 3.921875 
Q 80.375 -1.421875 72.703125 -1.421875 
Q 64.890625 -1.421875 60.34375 3.921875 
Q 55.8125 9.28125 55.8125 18.40625 
Q 55.8125 27.59375 60.375 32.9375 
Q 64.9375 38.28125 72.703125 38.28125 
z
M 22.3125 68.015625 
Q 18.109375 68.015625 15.6875 64.375 
Q 13.28125 60.75 13.28125 54.390625 
Q 13.28125 47.953125 15.671875 44.328125 
Q 18.0625 40.71875 22.3125 40.71875 
Q 26.5625 40.71875 28.96875 44.328125 
Q 31.390625 47.953125 31.390625 54.390625 
Q 31.390625 60.6875 28.953125 64.34375 
Q 26.515625 68.015625 22.3125 68.015625 
z
M 66.40625 74.21875 
L 74.21875 74.21875 
L 28.609375 -1.421875 
L 20.796875 -1.421875 
z
M 22.3125 74.21875 
Q 30.03125 74.21875 34.609375 68.875 
Q 39.203125 63.53125 39.203125 54.390625 
Q 39.203125 45.171875 34.640625 39.84375 
Q 30.078125 34.515625 22.3125 34.515625 
Q 14.546875 34.515625 10.03125 39.859375 
Q 5.515625 45.21875 5.515625 54.390625 
Q 5.515625 63.484375 10.046875 68.84375 
Q 14.59375 74.21875 22.3125 74.21875 
z
" id="DejaVuSans-37"/>
      </defs>
      <g transform="translate(31.245938 242.184683)scale(0.1 -0.1)">
       <use xlink:href="#DejaVuSans-48"/>
       <use x="63.623047" xlink:href="#DejaVuSans-37"/>
      </g>
     </g>
    </g>
    <g id="ytick_2">
     <g id="line2d_10">
      <path clip-path="url(#pe857d3ee5b)" d="M 54.11 192.191104 
L 450 192.191104 
" style="fill:none;stroke:#b0b0b0;stroke-linecap:square;stroke-width:0.8;"/>
     </g>
     <g id="line2d_11">
      <g>
       <use style="stroke:#000000;stroke-width:0.8;" x="54.11" xlink:href="#m5cfc3f0209" y="192.191104"/>
      </g>
     </g>
     <g id="text_9">
      <!-- 20% -->
      <defs>
       <path d="M 19.1875 8.296875 
L 53.609375 8.296875 
L 53.609375 0 
L 7.328125 0 
L 7.328125 8.296875 
Q 12.9375 14.109375 22.625 23.890625 
Q 32.328125 33.6875 34.8125 36.53125 
Q 39.546875 41.84375 41.421875 45.53125 
Q 43.3125 49.21875 43.3125 52.78125 
Q 43.3125 58.59375 39.234375 62.25 
Q 35.15625 65.921875 28.609375 65.921875 
Q 23.96875 65.921875 18.8125 64.3125 
Q 13.671875 62.703125 7.8125 59.421875 
L 7.8125 69.390625 
Q 13.765625 71.78125 18.9375 73 
Q 24.125 74.21875 28.421875 74.21875 
Q 39.75 74.21875 46.484375 68.546875 
Q 53.21875 62.890625 53.21875 53.421875 
Q 53.21875 48.921875 51.53125 44.890625 
Q 49.859375 40.875 45.40625 35.40625 
Q 44.1875 33.984375 37.640625 27.21875 
Q 31.109375 20.453125 19.1875 8.296875 
z
" id="DejaVuSans-50"/>
      </defs>
      <g transform="translate(24.883438 195.990323)scale(0.1 -0.1)">
       <use xlink:href="#DejaVuSans-50"/>
       <use x="63.623047" xlink:href="#DejaVuSans-48"/>
       <use x="127.246094" xlink:href="#DejaVuSans-37"/>
      </g>
     </g>
    </g>
    <g id="ytick_3">
     <g id="line2d_12">
      <path clip-path="url(#pe857d3ee5b)" d="M 54.11 145.996745 
L 450 145.996745 
" style="fill:none;stroke:#b0b0b0;stroke-linecap:square;stroke-width:0.8;"/>
     </g>
     <g id="line2d_13">
      <g>
       <use style="stroke:#000000;stroke-width:0.8;" x="54.11" xlink:href="#m5cfc3f0209" y="145.996745"/>
      </g>
     </g>
     <g id="text_10">
      <!-- 40% -->
      <defs>
       <path d="M 37.796875 64.3125 
L 12.890625 25.390625 
L 37.796875 25.390625 
z
M 35.203125 72.90625 
L 47.609375 72.90625 
L 47.609375 25.390625 
L 58.015625 25.390625 
L 58.015625 17.1875 
L 47.609375 17.1875 
L 47.609375 0 
L 37.796875 0 
L 37.796875 17.1875 
L 4.890625 17.1875 
L 4.890625 26.703125 
z
" id="DejaVuSans-52"/>
      </defs>
      <g transform="translate(24.883438 149.795963)scale(0.1 -0.1)">
       <use xlink:href="#DejaVuSans-52"/>
       <use x="63.623047" xlink:href="#DejaVuSans-48"/>
       <use x="127.246094" xlink:href="#DejaVuSans-37"/>
      </g>
     </g>
    </g>
    <g id="ytick_4">
     <g id="line2d_14">
      <path clip-path="url(#pe857d3ee5b)" d="M 54.11 99.802385 
L 450 99.802385 
" style="fill:none;stroke:#b0b0b0;stroke-linecap:square;stroke-width:0.8;"/>
     </g>
     <g id="line2d_15">
      <g>
       <use style="stroke:#000000;stroke-width:0.8;" x="54.11" xlink:href="#m5cfc3f0209" y="99.802385"/>
      </g>
     </g>
     <g id="text_11">
      <!-- 60% -->
      <defs>
       <path d="M 33.015625 40.375 
Q 26.375 40.375 22.484375 35.828125 
Q 18.609375 31.296875 18.609375 23.390625 
Q 18.609375 15.53125 22.484375 10.953125 
Q 26.375 6.390625 33.015625 6.390625 
Q 39.65625 6.390625 43.53125 10.953125 
Q 47.40625 15.53125 47.40625 23.390625 
Q 47.40625 31.296875 43.53125 35.828125 
Q 39.65625 40.375 33.015625 40.375 
z
M 52.59375 71.296875 
L 52.59375 62.3125 
Q 48.875 64.0625 45.09375 64.984375 
Q 41.3125 65.921875 37.59375 65.921875 
Q 27.828125 65.921875 22.671875 59.328125 
Q 17.53125 52.734375 16.796875 39.40625 
Q 19.671875 43.65625 24.015625 45.921875 
Q 28.375 48.1875 33.59375 48.1875 
Q 44.578125 48.1875 50.953125 41.515625 
Q 57.328125 34.859375 57.328125 23.390625 
Q 57.328125 12.15625 50.6875 5.359375 
Q 44.046875 -1.421875 33.015625 -1.421875 
Q 20.359375 -1.421875 13.671875 8.265625 
Q 6.984375 17.96875 6.984375 36.375 
Q 6.984375 53.65625 15.1875 63.9375 
Q 23.390625 74.21875 37.203125 74.21875 
Q 40.921875 74.21875 44.703125 73.484375 
Q 48.484375 72.75 52.59375 71.296875 
z
" id="DejaVuSans-54"/>
      </defs>
      <g transform="translate(24.883438 103.601604)scale(0.1 -0.1)">
       <use xlink:href="#DejaVuSans-54"/>
       <use x="63.623047" xlink:href="#DejaVuSans-48"/>
       <use x="127.246094" xlink:href="#DejaVuSans-37"/>
      </g>
     </g>
    </g>
    <g id="ytick_5">
     <g id="line2d_16">
      <path clip-path="url(#pe857d3ee5b)" d="M 54.11 53.608026 
L 450 53.608026 
" style="fill:none;stroke:#b0b0b0;stroke-linecap:square;stroke-width:0.8;"/>
     </g>
     <g id="line2d_17">
      <g>
       <use style="stroke:#000000;stroke-width:0.8;" x="54.11" xlink:href="#m5cfc3f0209" y="53.608026"/>
      </g>
     </g>
     <g id="text_12">
      <!-- 80% -->
      <defs>
       <path d="M 31.78125 34.625 
Q 24.75 34.625 20.71875 30.859375 
Q 16.703125 27.09375 16.703125 20.515625 
Q 16.703125 13.921875 20.71875 10.15625 
Q 24.75 6.390625 31.78125 6.390625 
Q 38.8125 6.390625 42.859375 10.171875 
Q 46.921875 13.96875 46.921875 20.515625 
Q 46.921875 27.09375 42.890625 30.859375 
Q 38.875 34.625 31.78125 34.625 
z
M 21.921875 38.8125 
Q 15.578125 40.375 12.03125 44.71875 
Q 8.5 49.078125 8.5 55.328125 
Q 8.5 64.0625 14.71875 69.140625 
Q 20.953125 74.21875 31.78125 74.21875 
Q 42.671875 74.21875 48.875 69.140625 
Q 55.078125 64.0625 55.078125 55.328125 
Q 55.078125 49.078125 51.53125 44.71875 
Q 48 40.375 41.703125 38.8125 
Q 48.828125 37.15625 52.796875 32.3125 
Q 56.78125 27.484375 56.78125 20.515625 
Q 56.78125 9.90625 50.3125 4.234375 
Q 43.84375 -1.421875 31.78125 -1.421875 
Q 19.734375 -1.421875 13.25 4.234375 
Q 6.78125 9.90625 6.78125 20.515625 
Q 6.78125 27.484375 10.78125 32.3125 
Q 14.796875 37.15625 21.921875 38.8125 
z
M 18.3125 54.390625 
Q 18.3125 48.734375 21.84375 45.5625 
Q 25.390625 42.390625 31.78125 42.390625 
Q 38.140625 42.390625 41.71875 45.5625 
Q 45.3125 48.734375 45.3125 54.390625 
Q 45.3125 60.0625 41.71875 63.234375 
Q 38.140625 66.40625 31.78125 66.40625 
Q 25.390625 66.40625 21.84375 63.234375 
Q 18.3125 60.0625 18.3125 54.390625 
z
" id="DejaVuSans-56"/>
      </defs>
      <g transform="translate(24.883438 57.407244)scale(0.1 -0.1)">
       <use xlink:href="#DejaVuSans-56"/>
       <use x="63.623047" xlink:href="#DejaVuSans-48"/>
       <use x="127.246094" xlink:href="#DejaVuSans-37"/>
      </g>
     </g>
    </g>
    <g id="text_13">
     <!-- Captured packets per second, normalized -->
     <defs>
      <path d="M 64.40625 67.28125 
L 64.40625 56.890625 
Q 59.421875 61.53125 53.78125 63.8125 
Q 48.140625 66.109375 41.796875 66.109375 
Q 29.296875 66.109375 22.65625 58.46875 
Q 16.015625 50.828125 16.015625 36.375 
Q 16.015625 21.96875 22.65625 14.328125 
Q 29.296875 6.6875 41.796875 6.6875 
Q 48.140625 6.6875 53.78125 8.984375 
Q 59.421875 11.28125 64.40625 15.921875 
L 64.40625 5.609375 
Q 59.234375 2.09375 53.4375 0.328125 
Q 47.65625 -1.421875 41.21875 -1.421875 
Q 24.65625 -1.421875 15.125 8.703125 
Q 5.609375 18.84375 5.609375 36.375 
Q 5.609375 53.953125 15.125 64.078125 
Q 24.65625 74.21875 41.21875 74.21875 
Q 47.75 74.21875 53.53125 72.484375 
Q 59.328125 70.75 64.40625 67.28125 
z
" id="DejaVuSans-67"/>
      <path d="M 11.71875 12.40625 
L 22.015625 12.40625 
L 22.015625 4 
L 14.015625 -11.625 
L 7.71875 -11.625 
L 11.71875 4 
z
" id="DejaVuSans-44"/>
      <path d="M 52 44.1875 
Q 55.375 50.25 60.0625 53.125 
Q 64.75 56 71.09375 56 
Q 79.640625 56 84.28125 50.015625 
Q 88.921875 44.046875 88.921875 33.015625 
L 88.921875 0 
L 79.890625 0 
L 79.890625 32.71875 
Q 79.890625 40.578125 77.09375 44.375 
Q 74.3125 48.1875 68.609375 48.1875 
Q 61.625 48.1875 57.5625 43.546875 
Q 53.515625 38.921875 53.515625 30.90625 
L 53.515625 0 
L 44.484375 0 
L 44.484375 32.71875 
Q 44.484375 40.625 41.703125 44.40625 
Q 38.921875 48.1875 33.109375 48.1875 
Q 26.21875 48.1875 22.15625 43.53125 
Q 18.109375 38.875 18.109375 30.90625 
L 18.109375 0 
L 9.078125 0 
L 9.078125 54.6875 
L 18.109375 54.6875 
L 18.109375 46.1875 
Q 21.1875 51.21875 25.484375 53.609375 
Q 29.78125 56 35.6875 56 
Q 41.65625 56 45.828125 52.96875 
Q 50 49.953125 52 44.1875 
z
" id="DejaVuSans-109"/>
      <path d="M 5.515625 54.6875 
L 48.1875 54.6875 
L 48.1875 46.484375 
L 14.40625 7.171875 
L 48.1875 7.171875 
L 48.1875 0 
L 4.296875 0 
L 4.296875 8.203125 
L 38.09375 47.515625 
L 5.515625 47.515625 
z
" id="DejaVuSans-122"/>
     </defs>
     <g transform="translate(18.80375 236.176013)rotate(-90)scale(0.1 -0.1)">
      <use xlink:href="#DejaVuSans-67"/>
      <use x="69.824219" xlink:href="#DejaVuSans-97"/>
      <use x="131.103516" xlink:href="#DejaVuSans-112"/>
      <use x="194.580078" xlink:href="#DejaVuSans-116"/>
      <use x="233.789062" xlink:href="#DejaVuSans-117"/>
      <use x="297.167969" xlink:href="#DejaVuSans-114"/>
      <use x="336.03125" xlink:href="#DejaVuSans-101"/>
      <use x="397.554688" xlink:href="#DejaVuSans-100"/>
      <use x="461.03125" xlink:href="#DejaVuSans-32"/>
      <use x="492.818359" xlink:href="#DejaVuSans-112"/>
      <use x="556.294922" xlink:href="#DejaVuSans-97"/>
      <use x="617.574219" xlink:href="#DejaVuSans-99"/>
      <use x="672.554688" xlink:href="#DejaVuSans-107"/>
      <use x="726.839844" xlink:href="#DejaVuSans-101"/>
      <use x="788.363281" xlink:href="#DejaVuSans-116"/>
      <use x="827.572266" xlink:href="#DejaVuSans-115"/>
      <use x="879.671875" xlink:href="#DejaVuSans-32"/>
      <use x="911.458984" xlink:href="#DejaVuSans-112"/>
      <use x="974.935547" xlink:href="#DejaVuSans-101"/>
      <use x="1036.458984" xlink:href="#DejaVuSans-114"/>
      <use x="1077.572266" xlink:href="#DejaVuSans-32"/>
      <use x="1109.359375" xlink:href="#DejaVuSans-115"/>
      <use x="1161.458984" xlink:href="#DejaVuSans-101"/>
      <use x="1222.982422" xlink:href="#DejaVuSans-99"/>
      <use x="1277.962891" xlink:href="#DejaVuSans-111"/>
      <use x="1339.144531" xlink:href="#DejaVuSans-110"/>
      <use x="1402.523438" xlink:href="#DejaVuSans-100"/>
      <use x="1466" xlink:href="#DejaVuSans-44"/>
      <use x="1497.787109" xlink:href="#DejaVuSans-32"/>
      <use x="1529.574219" xlink:href="#DejaVuSans-110"/>
      <use x="1592.953125" xlink:href="#DejaVuSans-111"/>
      <use x="1654.134766" xlink:href="#DejaVuSans-114"/>
      <use x="1693.498047" xlink:href="#DejaVuSans-109"/>
      <use x="1790.910156" xlink:href="#DejaVuSans-97"/>
      <use x="1852.189453" xlink:href="#DejaVuSans-108"/>
      <use x="1879.972656" xlink:href="#DejaVuSans-105"/>
      <use x="1907.755859" xlink:href="#DejaVuSans-122"/>
      <use x="1960.246094" xlink:href="#DejaVuSans-101"/>
      <use x="2021.769531" xlink:href="#DejaVuSans-100"/>
     </g>
    </g>
   </g>
   <g id="patch_3">
    <path clip-path="url(#pe857d3ee5b)" d="M 72.105 238.385464 
L 114.446176 238.385464 
L 114.446176 189.816639 
L 72.105 189.816639 
z
" style="fill:#4169e1;"/>
   </g>
   <g id="patch_4">
    <path clip-path="url(#pe857d3ee5b)" d="M 125.031471 238.385464 
L 167.372647 238.385464 
L 167.372647 149.839406 
L 125.031471 149.839406 
z
" style="fill:#4169e1;"/>
   </g>
   <g id="patch_5">
    <path clip-path="url(#pe857d3ee5b)" d="M 177.957941 238.385464 
L 220.299118 238.385464 
L 220.299118 149.09415 
L 177.957941 149.09415 
z
" style="fill:#4169e1;"/>
   </g>
   <g id="patch_6">
    <path clip-path="url(#pe857d3ee5b)" d="M 230.884412 238.385464 
L 273.225588 238.385464 
L 273.225588 141.491776 
L 230.884412 141.491776 
z
" style="fill:#4169e1;"/>
   </g>
   <g id="patch_7">
    <path clip-path="url(#pe857d3ee5b)" d="M 283.810882 238.385464 
L 326.152059 238.385464 
L 326.152059 106.719762 
L 283.810882 106.719762 
z
" style="fill:#4169e1;"/>
   </g>
   <g id="patch_8">
    <path clip-path="url(#pe857d3ee5b)" d="M 336.737353 238.385464 
L 379.078529 238.385464 
L 379.078529 35.58026 
L 336.737353 35.58026 
z
" style="fill:#4169e1;"/>
   </g>
   <g id="patch_9">
    <path clip-path="url(#pe857d3ee5b)" d="M 389.663824 238.385464 
L 432.005 238.385464 
L 432.005 36.928618 
L 389.663824 36.928618 
z
" style="fill:#4169e1;"/>
   </g>
   <g id="patch_10">
    <path d="M 54.11 238.385464 
L 54.11 25.44 
" style="fill:none;stroke:#000000;stroke-linecap:square;stroke-linejoin:miter;stroke-width:0.8;"/>
   </g>
   <g id="patch_11">
    <path d="M 450 238.385464 
L 450 25.44 
" style="fill:none;stroke:#000000;stroke-linecap:square;stroke-linejoin:miter;stroke-width:0.8;"/>
   </g>
   <g id="patch_12">
    <path d="M 54.11 238.385464 
L 450 238.385464 
" style="fill:none;stroke:#000000;stroke-linecap:square;stroke-linejoin:miter;stroke-width:0.8;"/>
   </g>
   <g id="patch_13">
    <path d="M 54.11 25.44 
L 450 25.44 
" style="fill:none;stroke:#000000;stroke-linecap:square;stroke-linejoin:miter;stroke-width:0.8;"/>
   </g>
   <g id="text_14">
    <!-- The baseline is a simple SRv6 packet with no action -->
    <defs>
     <path d="M 48.6875 27.296875 
Q 48.6875 37.203125 44.609375 42.84375 
Q 40.53125 48.484375 33.40625 48.484375 
Q 26.265625 48.484375 22.1875 42.84375 
Q 18.109375 37.203125 18.109375 27.296875 
Q 18.109375 17.390625 22.1875 11.75 
Q 26.265625 6.109375 33.40625 6.109375 
Q 40.53125 6.109375 44.609375 11.75 
Q 48.6875 17.390625 48.6875 27.296875 
z
M 18.109375 46.390625 
Q 20.953125 51.265625 25.265625 53.625 
Q 29.59375 56 35.59375 56 
Q 45.5625 56 51.78125 48.09375 
Q 58.015625 40.1875 58.015625 27.296875 
Q 58.015625 14.40625 51.78125 6.484375 
Q 45.5625 -1.421875 35.59375 -1.421875 
Q 29.59375 -1.421875 25.265625 0.953125 
Q 20.953125 3.328125 18.109375 8.203125 
L 18.109375 0 
L 9.078125 0 
L 9.078125 75.984375 
L 18.109375 75.984375 
z
" id="DejaVuSans-98"/>
     <path d="M 53.515625 70.515625 
L 53.515625 60.890625 
Q 47.90625 63.578125 42.921875 64.890625 
Q 37.9375 66.21875 33.296875 66.21875 
Q 25.25 66.21875 20.875 63.09375 
Q 16.5 59.96875 16.5 54.203125 
Q 16.5 49.359375 19.40625 46.890625 
Q 22.3125 44.4375 30.421875 42.921875 
L 36.375 41.703125 
Q 47.40625 39.59375 52.65625 34.296875 
Q 57.90625 29 57.90625 20.125 
Q 57.90625 9.515625 50.796875 4.046875 
Q 43.703125 -1.421875 29.984375 -1.421875 
Q 24.8125 -1.421875 18.96875 -0.25 
Q 13.140625 0.921875 6.890625 3.21875 
L 6.890625 13.375 
Q 12.890625 10.015625 18.65625 8.296875 
Q 24.421875 6.59375 29.984375 6.59375 
Q 38.421875 6.59375 43.015625 9.90625 
Q 47.609375 13.234375 47.609375 19.390625 
Q 47.609375 24.75 44.3125 27.78125 
Q 41.015625 30.8125 33.5 32.328125 
L 27.484375 33.5 
Q 16.453125 35.6875 11.515625 40.375 
Q 6.59375 45.0625 6.59375 53.421875 
Q 6.59375 63.09375 13.40625 68.65625 
Q 20.21875 74.21875 32.171875 74.21875 
Q 37.3125 74.21875 42.625 73.28125 
Q 47.953125 72.359375 53.515625 70.515625 
z
" id="DejaVuSans-83"/>
     <path d="M 4.203125 54.6875 
L 13.1875 54.6875 
L 24.421875 12.015625 
L 35.59375 54.6875 
L 46.1875 54.6875 
L 57.421875 12.015625 
L 68.609375 54.6875 
L 77.59375 54.6875 
L 63.28125 0 
L 52.6875 0 
L 40.921875 44.828125 
L 29.109375 0 
L 18.5 0 
z
" id="DejaVuSans-119"/>
    </defs>
    <g transform="translate(96.224688 19.44)scale(0.12 -0.12)">
     <use xlink:href="#DejaVuSans-84"/>
     <use x="61.083984" xlink:href="#DejaVuSans-104"/>
     <use x="124.462891" xlink:href="#DejaVuSans-101"/>
     <use x="185.986328" xlink:href="#DejaVuSans-32"/>
     <use x="217.773438" xlink:href="#DejaVuSans-98"/>
     <use x="281.25" xlink:href="#DejaVuSans-97"/>
     <use x="342.529297" xlink:href="#DejaVuSans-115"/>
     <use x="394.628906" xlink:href="#DejaVuSans-101"/>
     <use x="456.152344" xlink:href="#DejaVuSans-108"/>
     <use x="483.935547" xlink:href="#DejaVuSans-105"/>
     <use x="511.71875" xlink:href="#DejaVuSans-110"/>
     <use x="575.097656" xlink:href="#DejaVuSans-101"/>
     <use x="636.621094" xlink:href="#DejaVuSans-32"/>
     <use x="668.408203" xlink:href="#DejaVuSans-105"/>
     <use x="696.191406" xlink:href="#DejaVuSans-115"/>
     <use x="748.291016" xlink:href="#DejaVuSans-32"/>
     <use x="780.078125" xlink:href="#DejaVuSans-97"/>
     <use x="841.357422" xlink:href="#DejaVuSans-32"/>
     <use x="873.144531" xlink:href="#DejaVuSans-115"/>
     <use x="925.244141" xlink:href="#DejaVuSans-105"/>
     <use x="953.027344" xlink:href="#DejaVuSans-109"/>
     <use x="1050.439453" xlink:href="#DejaVuSans-112"/>
     <use x="1113.916016" xlink:href="#DejaVuSans-108"/>
     <use x="1141.699219" xlink:href="#DejaVuSans-101"/>
     <use x="1203.222656" xlink:href="#DejaVuSans-32"/>
     <use x="1235.009766" xlink:href="#DejaVuSans-83"/>
     <use x="1298.486328" xlink:href="#DejaVuSans-82"/>
     <use x="1367.96875" xlink:href="#DejaVuSans-118"/>
     <use x="1427.148438" xlink:href="#DejaVuSans-54"/>
     <use x="1490.771484" xlink:href="#DejaVuSans-32"/>
     <use x="1522.558594" xlink:href="#DejaVuSans-112"/>
     <use x="1586.035156" xlink:href="#DejaVuSans-97"/>
     <use x="1647.314453" xlink:href="#DejaVuSans-99"/>
     <use x="1702.294922" xlink:href="#DejaVuSans-107"/>
     <use x="1756.580078" xlink:href="#DejaVuSans-101"/>
     <use x="1818.103516" xlink:href="#DejaVuSans-116"/>
     <use x="1857.3125" xlink:href="#DejaVuSans-32"/>
     <use x="1889.099609" xlink:href="#DejaVuSans-119"/>
     <use x="1970.886719" xlink:href="#DejaVuSans-105"/>
     <use x="1998.669922" xlink:href="#DejaVuSans-116"/>
     <use x="2037.878906" xlink:href="#DejaVuSans-104"/>
     <use x="2101.257812" xlink:href="#DejaVuSans-32"/>
     <use x="2133.044922" xlink:href="#DejaVuSans-110"/>
     <use x="2196.423828" xlink:href="#DejaVuSans-111"/>
     <use x="2257.605469" xlink:href="#DejaVuSans-32"/>
     <use x="2289.392578" xlink:href="#DejaVuSans-97"/>
     <use x="2350.671875" xlink:href="#DejaVuSans-99"/>
     <use x="2405.652344" xlink:href="#DejaVuSans-116"/>
     <use x="2444.861328" xlink:href="#DejaVuSans-105"/>
     <use x="2472.644531" xlink:href="#DejaVuSans-111"/>
     <use x="2533.826172" xlink:href="#DejaVuSans-110"/>
    </g>
   </g>
  </g>
 </g>
 <defs>
  <clipPath id="pe857d3ee5b">
   <rect height="212.945464" width="395.89" x="54.11" y="25.44"/>
  </clipPath>
 </defs>
</svg>
